<svg width="260" height="319" viewBox="0 0 260 319" fill="none" xmlns="http://www.w3.org/2000/svg">
<path d="M202.404 289.42C229.381 313.782 250.008 351.345 259.903 395.809L-6.90377e-05 395.809C9.89519 351.345 30.5219 313.782 57.4987 289.42L202.404 289.42Z" fill="black"/>
<path d="M66.6365 281.566C90.525 257.38 105.296 223.995 105.296 187.124C105.296 166.483 100.666 146.933 92.3991 129.479L167.957 129.479C159.69 146.933 155.06 166.483 155.06 187.124C155.06 223.995 169.831 257.38 193.72 281.566L66.6365 281.566Z" fill="black"/>
<path d="M143.385 14.1666C143.385 21.4608 137.472 27.3738 130.178 27.3738C122.884 27.3738 116.971 21.4607 116.971 14.1666C116.971 6.87253 122.884 0.959494 130.178 0.959495C137.472 0.959497 143.385 6.87254 143.385 14.1666Z" fill="black"/>
<path d="M76.6204 88.4436C76.6204 100.992 80.9418 112.527 88.1703 121.625L170.959 121.625C178.188 112.527 182.509 100.992 182.509 88.4436C182.509 88.4436 182.509 59.0187 129.565 35.2283C76.6204 58.3926 76.6204 88.1715 76.6204 88.4436Z" fill="black"/>
</svg>
